HIERARCHY
ROOT Pelvis
{
	OFFSET 0.000000 0.000000 0.000000
	CHANNELS 6 Xposition Yposition Zposition Xrotation Yrotation Zrotation
	JOINT LeftUpLeg_virtual
	{
		OFFSET 0.000000 0.000000 0.000000
		CHANNELS 3 Xrotation Yrotation Zrotation
		JOINT LeftUpLeg
		{
			OFFSET 18.735201 -5.666702 -4.541200
			CHANNELS 3 Xrotation Yrotation Zrotation
			JOINT LeftLeg
			{
				OFFSET -0.021200 -31.938179 0.493100
				CHANNELS 3 Xrotation Yrotation Zrotation
				JOINT LeftFoot
				{
					OFFSET 0.021200 -31.938179 -4.336299
					CHANNELS 3 Xrotation Yrotation Zrotation
					JOINT LeftToeBase
					{
						OFFSET 0.943001 -26.722000 15.023500
						CHANNELS 3 Xrotation Yrotation Zrotation
						End Site
						{
							OFFSET 0 0 0
						}
					}
				}
			}
		}
	}
	JOINT RightUpLeg_virtual
	{
		OFFSET 0.000000 0.000000 0.000000
		CHANNELS 3 Xrotation Yrotation Zrotation
		JOINT RightUpLeg
		{
			OFFSET -18.735201 -5.666702 -4.541200
			CHANNELS 3 Xrotation Yrotation Zrotation
			JOINT RightLeg
			{
				OFFSET 0.018946 -31.938133 0.493100
				CHANNELS 3 Xrotation Yrotation Zrotation
				JOINT RightFoot
				{
					OFFSET -0.018946 -31.938126 -4.336299
					CHANNELS 3 Xrotation Yrotation Zrotation
					JOINT RightToeBase
					{
						OFFSET -0.943001 -26.722004 15.023500
						CHANNELS 3 Xrotation Yrotation Zrotation
						End Site
						{
							OFFSET 0 0 0
						}
					}
				}
			}
		}
	}
	JOINT Hips_virtual
	{
		OFFSET 0.000000 0.000000 0.000000
		CHANNELS 3 Xrotation Yrotation Zrotation
		JOINT Hips
		{
			OFFSET -0.000000 -0.000000 -0.000000
			CHANNELS 3 Xrotation Yrotation Zrotation
			JOINT Spine
			{
				OFFSET 0.000000 10.199997 -0.299500
				CHANNELS 3 Xrotation Yrotation Zrotation
				JOINT Spine1
				{
					OFFSET 0.000000 11.900002 -1.516600
					CHANNELS 3 Xrotation Yrotation Zrotation
					JOINT Spine2
					{
						OFFSET 0.000000 13.600006 -2.842500
						CHANNELS 3 Xrotation Yrotation Zrotation
						JOINT Neck_virtual
						{
							OFFSET 0.000000 0.000000 0.000000
							CHANNELS 3 Xrotation Yrotation Zrotation
							JOINT Neck
							{
								OFFSET 0.000000 9.624100 -2.890100
								CHANNELS 3 Xrotation Yrotation Zrotation
								JOINT Head
								{
									OFFSET 0.000000 14.068802 -1.351900
									CHANNELS 3 Xrotation Yrotation Zrotation
									End Site
									{
										OFFSET 0 0 0
									}
								}
							}
						}
						JOINT LeftShoulder_virtual
						{
							OFFSET 0.000000 0.000000 0.000000
							CHANNELS 3 Xrotation Yrotation Zrotation
							JOINT LeftShoulder
							{
								OFFSET 15.263000 10.923401 -0.547700
								CHANNELS 3 Xrotation Yrotation Zrotation
								JOINT LeftArm
								{
									OFFSET 25.438599 -2.830597 -13.032500
									CHANNELS 3 Xrotation Yrotation Zrotation
									JOINT LeftForeArm
									{
										OFFSET 29.960503 0.000000 0.000000
										CHANNELS 3 Xrotation Yrotation Zrotation
										JOINT LeftHand
										{
											OFFSET 27.849251 0.000000 0.000000
											CHANNELS 3 Xrotation Yrotation Zrotation
											End Site
											{
												OFFSET 0 0 0
											}
										}
									}
								}
							}
						}
						JOINT RightShoulder_virtual
						{
							OFFSET 0.000000 0.000000 0.000000
							CHANNELS 3 Xrotation Yrotation Zrotation
							JOINT RightShoulder
							{
								OFFSET -15.263000 10.923401 -0.547700
								CHANNELS 3 Xrotation Yrotation Zrotation
								JOINT RightArm
								{
									OFFSET -25.438599 -2.830597 -13.032500
									CHANNELS 3 Xrotation Yrotation Zrotation
									JOINT RightForeArm
									{
										OFFSET -29.960503 0.000000 0.000000
										CHANNELS 3 Xrotation Yrotation Zrotation
										JOINT RightHand
										{
											OFFSET -27.849251 0.000000 0.000000
											CHANNELS 3 Xrotation Yrotation Zrotation
											End Site
											{
												OFFSET 0 0 0
											}
										}
									}
								}
							}
						}
					}
				}
			}
		}
	}
}
MOTION
Frames: 10
Frame Time: 0.03333333
9.778210 90.505692 2.585291 0.000000 0.000000 0.000000 9.623739 -28.782055 -1.958160 -30.366898 5.766709 11.706368 38.626598 19.104377 -5.037241 -13.718940 20.252669 -0.589181 0.000000 0.000000 0.000000 13.361250 -69.291900 12.071991 -30.454676 -25.785549 -19.043513 35.939267 -5.824971 -0.357749 -15.493010 -9.075476 6.558096 0.000000 0.000000 0.000000 -4.283658 -27.735032 0.338721 1.695242 -12.118718 -2.360325 8.470971 -4.307170 -0.980294 2.983054 -2.243560 -0.323102 0.000000 0.000000 0.000000 -4.348839 -3.899031 -2.237815 -4.196196 -1.293773 -1.056698 0.000000 0.000000 0.000000 -2.753457 -2.468009 -0.068442 -3.939690 -5.038839 -9.331466 1.425447 5.598747 -55.388220 1.409183 -29.089339 -4.904673 0.000000 0.000000 0.000000 -3.688312 -3.430171 -1.792730 -5.525101 -7.063241 -1.095539 3.030708 0.195433 54.655266 -1.328430 62.684662 7.773764 0.000000 0.000000 0.000000 
9.408844 90.513878 2.218252 0.000000 0.000000 0.000000 9.680411 -29.464746 -1.598922 -30.514389 5.509365 12.018210 39.267376 19.511815 -5.558851 -13.319888 20.844841 -0.997130 0.000000 0.000000 0.000000 14.317081 -69.926288 12.787414 -30.094978 -26.082846 -19.159688 35.824889 -5.948340 -0.210829 -15.480813 -9.280228 6.703618 0.000000 0.000000 0.000000 -4.476429 -28.640674 0.293704 1.648780 -12.920858 -2.396076 8.354067 -4.160967 -1.022939 2.885188 -2.167637 -0.336743 0.000000 0.000000 0.000000 -4.455242 -3.798776 -2.204868 -4.219651 -1.208790 -1.066831 0.000000 0.000000 0.000000 -2.807066 -2.441299 -0.010738 -3.926175 -5.051126 -8.980302 1.463943 5.364253 -55.010333 1.632565 -29.002339 -4.825392 0.000000 0.000000 0.000000 -3.783696 -3.325813 -1.724863 -5.477752 -6.635538 -0.846374 2.875293 -0.440386 54.614575 -1.477454 62.043867 7.795462 0.000000 0.000000 0.000000 
9.032142 90.543777 1.832266 0.000000 0.000000 0.000000 9.723874 -30.206778 -1.144407 -30.690383 5.194315 12.412551 40.129824 19.786325 -5.987331 -12.694040 21.299337 -1.324362 0.000000 0.000000 0.000000 15.098154 -70.082809 13.391695 -29.693762 -26.231321 -19.120239 35.652129 -5.844600 -0.163579 -15.491081 -9.225869 6.839456 0.000000 0.000000 0.000000 -4.641675 -29.525904 0.254975 1.694633 -13.696827 -2.468241 8.274837 -4.013657 -1.037580 2.805671 -2.093266 -0.333204 0.000000 0.000000 0.000000 -4.537912 -3.718786 -2.138873 -4.231936 -1.135375 -1.061844 0.000000 0.000000 0.000000 -2.857288 -2.427876 0.060605 -3.914139 -5.108521 -8.596849 1.505162 5.106319 -54.651905 1.856375 -28.929075 -4.760428 0.000000 0.000000 0.000000 -3.864345 -3.237704 -1.639863 -5.419178 -6.257667 -0.542847 2.733326 -1.110024 54.612290 -1.623285 61.322422 7.822758 0.000000 0.000000 0.000000 
8.679298 90.584389 1.489857 0.000000 0.000000 0.000000 9.718201 -31.244721 -0.627739 -30.920096 4.766041 12.821985 41.213314 19.765854 -6.381809 -11.808122 21.490722 -1.778552 0.000000 0.000000 0.000000 16.120331 -70.104174 14.245983 -29.144974 -26.403527 -18.943120 35.580590 -5.739096 -0.174920 -15.426167 -9.132471 6.881188 0.000000 0.000000 0.000000 -4.791136 -30.346961 0.220080 1.798290 -14.524708 -2.494826 8.225581 -3.877619 -1.024933 2.741574 -2.025885 -0.313006 0.000000 0.000000 0.000000 -4.599578 -3.661960 -2.040683 -4.233974 -1.075928 -1.041319 0.000000 0.000000 0.000000 -2.905893 -2.430626 0.144168 -3.905011 -5.222209 -8.185396 1.518090 4.843873 -54.321833 2.063341 -28.867002 -4.718241 0.000000 0.000000 0.000000 -3.937546 -3.168254 -1.539786 -5.356511 -5.945349 -0.191937 2.601546 -1.800511 54.629530 -1.761235 60.538193 7.846019 0.000000 0.000000 0.000000 
8.354297 90.627510 1.119383 0.000000 0.000000 0.000000 9.625529 -32.459962 -0.133047 -31.247781 4.275399 13.195916 42.395862 19.515368 -6.678046 -10.753730 21.450930 -2.245836 0.000000 0.000000 0.000000 17.275994 -69.998490 15.223576 -28.446298 -26.581476 -18.665193 35.556653 -5.653674 -0.243733 -15.327267 -9.024011 6.816252 0.000000 0.000000 0.000000 -4.938250 -31.126326 0.181639 1.927350 -15.508739 -2.422079 8.196008 -3.749189 -0.987230 2.688483 -1.963760 -0.276836 0.000000 0.000000 0.000000 -4.626138 -3.637450 -1.914552 -4.219409 -1.036536 -1.007186 0.000000 0.000000 0.000000 -2.953627 -2.450456 0.238418 -3.899586 -5.399580 -7.751133 1.513460 4.571922 -54.043749 2.254992 -28.815096 -4.708405 0.000000 0.000000 0.000000 -4.003859 -3.118831 -1.426870 -5.290103 -5.708542 0.198284 2.482445 -2.482696 54.640827 -1.878031 59.713755 7.847253 0.000000 0.000000 0.000000 
8.066455 90.679199 0.680786 0.000000 0.000000 0.000000 9.426980 -33.838243 0.298741 -31.688465 3.735068 13.502905 43.544792 19.025828 -6.834705 -9.626322 21.153069 -2.693080 0.000000 0.000000 0.000000 18.496236 -69.757166 16.261559 -27.623792 -26.751747 -18.287196 35.536265 -5.595227 -0.343626 -15.231102 -8.923494 6.682749 0.000000 0.000000 0.000000 -5.092437 -31.868327 0.130132 1.993234 -16.479489 -2.412507 8.175974 -3.622232 -0.929953 2.639682 -1.902655 -0.227704 0.000000 0.000000 0.000000 -4.638440 -3.638259 -1.772055 -4.198354 -1.012929 -0.965324 0.000000 0.000000 0.000000 -3.000756 -2.488410 0.335634 -3.898035 -5.645136 -7.325082 1.451123 4.279082 -53.820006 2.414718 -28.805247 -4.736013 0.000000 0.000000 0.000000 -4.068628 -3.085952 -1.308467 -5.226667 -5.534304 0.597170 2.372256 -3.168840 54.630554 -1.972411 58.850160 7.818525 0.000000 0.000000 0.000000 
7.801768 90.737015 0.256613 0.000000 0.000000 0.000000 9.180079 -35.276800 0.641940 -32.177137 3.197312 13.725420 44.614686 18.310269 -6.838579 -8.484296 20.587467 -3.108594 0.000000 0.000000 0.000000 19.759980 -69.340818 17.326870 -26.684400 -26.899191 -17.822783 35.494929 -5.572519 -0.461843 -15.162998 -8.847287 6.496162 0.000000 0.000000 0.000000 -5.235010 -32.544212 0.081055 2.165405 -17.439874 -2.335764 8.182482 -3.496396 -0.857530 2.603807 -1.841488 -0.167746 0.000000 0.000000 0.000000 -4.630692 -3.660338 -1.614283 -4.168007 -1.003533 -0.915705 0.000000 0.000000 0.000000 -3.037064 -2.542206 0.435699 -3.889506 -5.954201 -6.905028 1.358393 3.947875 -53.639982 2.558486 -28.850449 -4.789091 0.000000 0.000000 0.000000 -4.116347 -3.066653 -1.187366 -5.149033 -5.414603 0.994864 2.277318 -3.853908 54.576589 -2.033841 57.955822 7.745596 0.000000 0.000000 0.000000 
7.538862 90.808090 -0.174114 0.000000 0.000000 0.000000 8.813127 -37.020404 0.905013 -32.802059 2.578680 13.856833 45.548739 17.330201 -6.682115 -7.389221 19.701308 -3.519876 0.000000 0.000000 0.000000 21.065268 -68.773455 18.419258 -25.631607 -27.018680 -17.277906 35.450458 -5.600668 -0.581202 -15.113166 -8.818019 6.274544 0.000000 0.000000 0.000000 -5.371122 -33.179427 0.038815 2.377459 -18.338749 -2.254418 8.205344 -3.368382 -0.773339 2.574837 -1.778287 -0.098095 0.000000 0.000000 0.000000 -4.700248 -3.690638 -1.445177 -4.176976 -1.000991 -0.858727 0.000000 0.000000 0.000000 -3.063907 -2.604607 0.533184 -3.874309 -6.302300 -6.508743 1.275111 3.572733 -53.501261 2.700334 -28.943852 -4.860731 0.000000 0.000000 0.000000 -4.147249 -3.057736 -1.067509 -5.059466 -5.342425 1.376412 2.229242 -4.507651 54.494254 -2.052431 57.055289 7.634984 0.000000 0.000000 0.000000 
7.252269 90.888809 -0.690928 0.000000 0.000000 0.000000 8.383904 -38.873332 1.025378 -33.467852 1.967530 13.852789 46.362504 16.109705 -6.409952 -6.302384 18.545683 -3.968562 0.000000 0.000000 0.000000 22.355059 -68.105360 19.481708 -24.520832 -27.102746 -16.689547 35.399805 -5.683832 -0.703698 -15.087289 -8.839041 6.012703 0.000000 0.000000 0.000000 -5.494818 -33.798037 -0.001000 2.524178 -19.111419 -2.254270 8.216984 -3.235389 -0.680923 2.538405 -1.711995 -0.020455 0.000000 0.000000 0.000000 -4.730352 -3.730101 -1.292198 -4.167675 -1.007261 -0.810673 0.000000 0.000000 0.000000 -3.086135 -2.665923 0.626974 -3.853524 -6.659266 -6.136872 1.233726 3.146941 -53.373550 2.860669 -29.082392 -4.929888 0.000000 0.000000 0.000000 -4.179750 -3.052473 -0.950540 -4.975973 -5.297689 1.739869 2.204093 -5.161551 54.385887 -2.045859 56.110400 7.499234 0.000000 0.000000 0.000000 
6.956613 90.995285 -1.217415 0.000000 0.000000 0.000000 7.790955 -40.805186 1.026525 -34.260946 1.324877 13.765145 47.071232 14.723212 -6.062848 -5.255137 17.180921 -4.444863 0.000000 0.000000 0.000000 23.299572 -67.373956 20.241307 -23.569277 -27.109349 -16.150501 35.232896 -5.798949 -0.832280 -15.158761 -8.893959 5.721769 0.000000 0.000000 0.000000 -5.614137 -34.361480 -0.047095 2.551609 -19.748981 -2.283417 8.213631 -3.090637 -0.584763 2.491501 -1.638250 0.062977 0.000000 0.000000 0.000000 -4.671916 -3.782085 -1.172047 -4.117378 -1.025786 -0.780728 0.000000 0.000000 0.000000 -3.114795 -2.724467 0.712269 -3.837767 -7.020448 -5.805200 1.179125 2.696380 -53.261634 3.009370 -29.271145 -5.005216 0.000000 0.000000 0.000000 -4.208965 -3.048978 -0.839459 -4.893561 -5.276339 2.077856 2.238716 -5.790207 54.248050 -1.991583 55.122574 7.327429 0.000000 0.000000 0.000000 
